<?xml version="1.0" encoding="UTF-8" standalone="no"?>
<!DOCTYPE svg PUBLIC "-//W3C//DTD SVG 1.1//EN" "http://www.w3.org/Graphics/SVG/1.1/DTD/svg11.dtd">
<svg version="1.1" xmlns="http://www.w3.org/2000/svg" xmlns:xlink="http://www.w3.org/1999/xlink" preserveAspectRatio="xMidYMid meet" viewBox="0 0 640 640" width="640" height="640"><defs><path d="M304.24 271L386.34 283.02L326.93 341.37L340.95 423.76L267.52 384.86L194.1 423.76L208.12 341.37L148.71 283.02L230.81 271L267.52 196.04L304.24 271Z" id="o8YOFYODwb"></path><path d="M291.66 289.82L346.73 297.56L306.88 335.1L316.29 388.12L267.03 363.08L217.77 388.12L227.18 335.1L187.33 297.56L242.4 289.82L267.03 241.58L291.66 289.82Z" id="c4oPLjrGzO"></path><path d="M633.19 640L6.81 640L6.81 0L524.26 0L633.19 108.94L633.19 640Z" id="c5rPP8JQM"></path><path d="M524.26 354.04C524.26 354.04 524.26 354.04 524.26 354.04C524.26 525.62 524.26 620.94 524.26 640C524.26 640 524.26 640 524.26 640C270.98 640 130.27 640 102.13 640C102.13 640 102.13 640 102.13 640C102.13 468.43 102.13 373.11 102.13 354.04C102.13 354.04 102.13 354.04 102.13 354.04C355.4 354.04 496.11 354.04 524.26 354.04Z" id="b5aBCb1UZE"></path><path d="M524.26 354.04C524.26 354.04 524.26 354.04 524.26 354.04C524.26 452.39 524.26 507.02 524.26 517.95C524.26 517.95 524.26 517.95 524.26 517.95C270.98 517.95 130.27 517.95 102.13 517.95C102.13 517.95 102.13 517.95 102.13 517.95C102.13 419.61 102.13 364.97 102.13 354.04C102.13 354.04 102.13 354.04 102.13 354.04C355.4 354.04 496.11 354.04 524.26 354.04Z" id="a4yI4jicA"></path><path d="M483.4 0C483.4 0 483.4 0 483.4 0C483.4 130.72 483.4 203.35 483.4 217.87C483.4 217.87 483.4 217.87 483.4 217.87C270.98 217.87 152.96 217.87 129.36 217.87C129.36 217.87 129.36 217.87 129.36 217.87C129.36 87.15 129.36 14.52 129.36 0C129.36 0 129.36 0 129.36 0C341.79 0 459.8 0 483.4 0Z" id="b1ma7XCe9K"></path><path d="M265.53 422.13C273.06 422.13 279.15 416.04 279.15 408.51C279.15 400.98 273.06 394.89 265.53 394.89C256 394.89 179.74 394.89 170.21 394.89C162.68 394.89 156.6 400.98 156.6 408.51C156.6 416.04 162.68 422.13 170.21 422.13C189.28 422.13 256 422.13 265.53 422.13Z" id="m1aCkkeM8W"></path><path d="M170.21 449.36C162.68 449.36 156.6 455.45 156.6 462.98C156.6 470.51 162.68 476.6 170.21 476.6C183.83 476.6 292.77 476.6 306.38 476.6C313.91 476.6 320 470.51 320 462.98C320 455.45 313.91 449.36 306.38 449.36C279.15 449.36 183.83 449.36 170.21 449.36Z" id="bh5HScIrQ"></path><path d="M337.7 453.31C335.11 455.88 333.62 459.29 333.62 462.98C333.62 466.66 335.1 470.06 337.57 472.65C340.14 475.1 343.54 476.6 347.23 476.6C350.91 476.6 354.31 475.1 356.9 472.65C359.35 470.06 360.85 466.52 360.85 462.98C360.85 459.44 359.35 455.88 356.9 453.31C351.86 448.27 342.74 448.27 337.7 453.31Z" id="a1DCx1JyoU"></path><path d="M428.94 54.47C428.94 54.47 428.94 54.47 428.94 54.47C428.94 119.83 428.94 156.14 428.94 163.4C428.94 163.4 428.94 163.4 428.94 163.4C396.26 163.4 378.1 163.4 374.47 163.4C374.47 163.4 374.47 163.4 374.47 163.4C374.47 98.04 374.47 61.73 374.47 54.47C374.47 54.47 374.47 54.47 374.47 54.47C407.15 54.47 425.3 54.47 428.94 54.47Z" id="a2jSb6r0Wr"></path><path d="M129.36 217.87L129.36 0L224.68 0L333.62 217.87L129.36 217.87Z" id="bawy1Lib9"></path></defs><g><g><g><use xlink:href="#o8YOFYODwb" opacity="1" fill="#d1cd24" fill-opacity="1"></use></g><g><use xlink:href="#c4oPLjrGzO" opacity="1" fill="#000000" fill-opacity="1"></use></g><g><use xlink:href="#c5rPP8JQM" opacity="1" fill="#6483da" fill-opacity="1"></use><g><use xlink:href="#c5rPP8JQM" opacity="1" fill-opacity="0" stroke="#000000" stroke-width="1" stroke-opacity="0"></use></g></g><g><use xlink:href="#b5aBCb1UZE" opacity="1" fill="#e7eced" fill-opacity="1"></use><g><use xlink:href="#b5aBCb1UZE" opacity="1" fill-opacity="0" stroke="#000000" stroke-width="1" stroke-opacity="0"></use></g></g><g><use xlink:href="#a4yI4jicA" opacity="1" fill="#ebba16" fill-opacity="1"></use><g><use xlink:href="#a4yI4jicA" opacity="1" fill-opacity="0" stroke="#000000" stroke-width="1" stroke-opacity="0"></use></g></g><g><use xlink:href="#b1ma7XCe9K" opacity="1" fill="#c7cac7" fill-opacity="1"></use><g><use xlink:href="#b1ma7XCe9K" opacity="1" fill-opacity="0" stroke="#000000" stroke-width="1" stroke-opacity="0"></use></g></g><g><use xlink:href="#m1aCkkeM8W" opacity="1" fill="#ffffff" fill-opacity="1"></use><g><use xlink:href="#m1aCkkeM8W" opacity="1" fill-opacity="0" stroke="#000000" stroke-width="1" stroke-opacity="0"></use></g></g><g><use xlink:href="#bh5HScIrQ" opacity="1" fill="#ffffff" fill-opacity="1"></use><g><use xlink:href="#bh5HScIrQ" opacity="1" fill-opacity="0" stroke="#000000" stroke-width="1" stroke-opacity="0"></use></g></g><g><use xlink:href="#a1DCx1JyoU" opacity="1" fill="#ffffff" fill-opacity="1"></use><g><use xlink:href="#a1DCx1JyoU" opacity="1" fill-opacity="0" stroke="#000000" stroke-width="1" stroke-opacity="0"></use></g></g><g><use xlink:href="#a2jSb6r0Wr" opacity="1" fill="#000000" fill-opacity="0"></use><g><use xlink:href="#a2jSb6r0Wr" opacity="1" fill-opacity="0" stroke="#424a60" stroke-width="2" stroke-opacity="1"></use></g></g><g><use xlink:href="#bawy1Lib9" opacity="1" fill="#e7eced" fill-opacity="1"></use><g><use xlink:href="#bawy1Lib9" opacity="1" fill-opacity="0" stroke="#000000" stroke-width="1" stroke-opacity="0"></use></g></g></g></g></svg>